/* XPM */
static char *_9e77c28f79f48d98e0d2ff4b979668dSiyzU8N1XJ4T8sSp[] = {
/* columns rows colors chars-per-pixel */
"80 80 256 2 ",
"   c #1A0100",
".  c #240200",
"X  c #2C0200",
"o  c #2C0A00",
"O  c #340100",
"+  c #3B0201",
"@  c #340C01",
"#  c #3C0B00",
"$  c #3C070A",
"%  c #3A1500",
"&  c #261200",
"*  c #352100",
"=  c #430300",
"-  c #4B0401",
";  c #430C00",
":  c #4B0C01",
">  c #460B0B",
",  c #520401",
"<  c #530C01",
"1  c #5B0C01",
"2  c #580708",
"3  c #441300",
"4  c #4B1300",
"5  c #431B00",
"6  c #4C1B00",
"7  c #4B160A",
"8  c #531401",
"9  c #5B1301",
"0  c #541B01",
"q  c #5B1C02",
"w  c #58180B",
"e  c #4A1615",
"r  c #581714",
"t  c #490A13",
"y  c #630B01",
"u  c #6C0C01",
"i  c #670606",
"p  c #760902",
"a  c #641300",
"s  c #6B1300",
"d  c #641C01",
"f  c #6A1A07",
"g  c #731500",
"h  c #741C00",
"j  c #7A1806",
"k  c #6B1413",
"l  c #4C2300",
"z  c #472702",
"x  c #532301",
"c  c #5A2400",
"v  c #542A00",
"b  c #5B2C01",
"n  c #58280B",
"m  c #4B3401",
"M  c #5B3402",
"N  c #583802",
"B  c #5A2614",
"V  c #5C3716",
"C  c #632301",
"Z  c #6B2401",
"A  c #642C01",
"S  c #6B2C01",
"D  c #67280B",
"F  c #742400",
"G  c #7C2301",
"H  c #742B01",
"J  c #7B2B01",
"K  c #78290B",
"L  c #643302",
"P  c #6C3301",
"I  c #643C01",
"U  c #6B3C02",
"Y  c #6B340B",
"T  c #68380A",
"R  c #733402",
"E  c #7B3302",
"W  c #743B01",
"Q  c #7B3C01",
"!  c #743B0C",
"~  c #78360B",
"^  c #662715",
"/  c #772B17",
"(  c #683715",
")  c #7B3C14",
"_  c #773718",
"`  c #663723",
"'  c #783227",
"]  c #572923",
"[  c #5A460A",
"{  c #644400",
"}  c #6B4402",
"|  c #6D4B01",
" . c #69460A",
".. c #744302",
"X. c #7C4302",
"o. c #734C01",
"O. c #7B4B03",
"+. c #7C440C",
"@. c #7B4C0B",
"#. c #74480C",
"$. c #745300",
"%. c #7B5402",
"&. c #745B01",
"*. c #7C5B01",
"=. c #79570C",
"-. c #694717",
";. c #7C4314",
":. c #784818",
">. c #7A5715",
",. c #6D5308",
"<. c #7C6301",
"1. c #7C6B01",
"2. c #786506",
"3. c #7C7506",
"4. c #7C6612",
"5. c #6B6101",
"6. c #794823",
"7. c #774F2A",
"8. c #821808",
"9. c #842708",
"0. c #833402",
"q. c #823C03",
"w. c #87380A",
"e. c #862B14",
"r. c #873A16",
"t. c #933A16",
"y. c #90340D",
"u. c #823824",
"i. c #8B2E22",
"p. c #A33C2B",
"a. c #844C02",
"s. c #864708",
"d. c #835403",
"f. c #835C03",
"g. c #84530B",
"h. c #8B5C0C",
"j. c #88580A",
"k. c #92590B",
"l. c #864917",
"z. c #934616",
"x. c #8C5B13",
"c. c #875718",
"v. c #945A17",
"b. c #964808",
"n. c #836B02",
"m. c #886708",
"M. c #926908",
"N. c #837302",
"B. c #8A7503",
"V. c #847B03",
"C. c #88780A",
"Z. c #937408",
"A. c #896716",
"S. c #946918",
"D. c #8A7614",
"F. c #957517",
"G. c #864A26",
"H. c #895825",
"J. c #965925",
"K. c #8B5834",
"L. c #935131",
"P. c #896525",
"I. c #976928",
"U. c #987624",
"Y. c #966934",
"T. c #8F6F2F",
"R. c #A56D2C",
"E. c #A3662A",
"W. c #976D45",
"Q. c #AD764A",
"!. c #7C8109",
"~. c #898206",
"^. c #8E8214",
"/. c #A18631",
"(. c #B28D4D",
"). c #C79C59",
"_. c #D5B157",
"`. c #D0956E",
"'. c #E89E6D",
"]. c #D8A968",
"[. c #DBB96A",
"{. c #D2A972",
"}. c #E5B769",
"|. c #E8BB78",
" X c #EFAF71",
".X c #EDA25B",
"XX c #DBC359",
"oX c #E9CD5E",
"OX c #DBC66B",
"+X c #DDCA75",
"@X c #DDD474",
"#X c #DAD56C",
"$X c #E7C867",
"%X c #E8D86B",
"&X c #F3D76D",
"*X c #E6CA78",
"=X c #F7C87A",
"-X c #E4D57B",
";X c #EBD47B",
":X c #EBDB7C",
">X c #E8D776",
",X c #F7D879",
"<X c #F6CB6B",
"1X c #ECE57A",
"2X c #FBE57C",
"3X c #F7E979",
"4X c #FDF47B",
"5X c #F9F979",
"6X c #F1EC6B",
"7X c #F5F15A",
"8X c #ECB783",
"9X c #F2B984",
"0X c #DDBC89",
"qX c #EAC885",
"wX c #F8CA88",
"eX c #ECDC82",
"rX c #EBD785",
"tX c #F2DD83",
"yX c #F9D888",
"uX c #FCD694",
"iX c #F4D195",
"pX c #EDE383",
"aX c #ECE687",
"sX c #F3E485",
"dX c #FCE484",
"fX c #F4EC84",
"gX c #FDEC84",
"hX c #F4E48B",
"jX c #FCE48C",
"kX c #F5EB8B",
"lX c #FCEC8C",
"zX c #F6F286",
"xX c #FDF384",
"cX c #FEFB84",
"vX c #F5F18A",
"bX c #FCF38C",
"nX c #FEFB8C",
"mX c #F4FA87",
"MX c #FCE493",
"NX c #FDEC93",
"BX c #FFEC9B",
"VX c #F6E796",
"CX c #FEF393",
"ZX c #FEFC94",
"AX c #FFF49B",
"SX c #FFFC9C",
"DX c #F6F995",
"FX c #EEEB8F",
"GX c #FEEBA4",
"HX c #FFF4A3",
"JX c #FFFCA3",
"KX c #FFF5AB",
"LX c #FFFCAB",
"PX c #FFFCB2",
"IX c #FFF5B1",
"UX c #F3D995",
/* pixels */
"! 0 O     & [ T.D.2.{ A.Y.-.6 # x o.c.Y.W.7.5 @ o % N ,.$.F.*.Z.d.R 8.u d @.m.S.0.9.r.~ A.| E b.a.O.#.H.W.k p p g 0.%.<.V.~.N.M.R.l.q : : + X $ @ l o.M.Z.f.d.h.",
"J.T 3 o     * -.P.U.=.>.I 5 6 M I.R.T. .l @ o % [ -.P.P.*.<.*.Z.f.Q 8.p d @.m.S.0.G w.~ c.} J b.a.O.o.Y.L.f g p G q.d.n.V.V.B.F.c.Z q 8 O O > # #  .S.m.f.M.h...",
"E.c.! l .     * 7.T.>.I 5 b :.Y.Y.>.M 5 z m { 4.4.D.U.F.m.$.m.M.j.Q 9.p a +.A.S.w.G r.;.c.#.J w.a.X.O.I.) a u g 0.s.m.C.V.N.Z.S.) < - : O # 7 # -.A.S.f.d.h.W 4 ",
"X.v.I. .% .     z -.l 5 v H.Y.H.T l % m =.A.D.^.N.B.n.n.Z.$.m.f.m.Q 9.u 9 #.A.S.w.G r.l.c.@.E w.a.X.d.E.S y s h q.a.m.^.N.C.M.g.C w + O ; 3 3 v Y.x.j.S.c.P 8 : ",
"C +.v.c.I z .   . 3 % I c.I.6.v % z { 4.D.C.V.V.V.V.n.n.Z.&.m.$.M.a.9.u 9 ..m.F.q.G 0.l.=.O.E q.a.O.k.v.a y g J a.f.D.C.3.D.x.P : : = + # # v P.A.j.x.c.! : - k ",
"Z Z W x.P. .% .   # b H.I.U v l z ,.T.4.5.C.^.N.V.V.B.B.B.*.n.f.S.a.0.s 0 ..m.F.q.J q.l.#.@.q.b.X.a.v.s.y u h 0.a.m.C.3.2.A.g.S 4 X + 7 + x H.I.d.A.c.S 8 < 2 2 ",
"a 9 D :.K.H.} l @ v 6.( ( # v N 4.D.^.3.5.N.~.1.N.N.B.B.n.n.*.m.A.a.w.d 8 U %.h.Q Z E l.I #.Q s.W l.E.F y g 9.s.f.C.C.3.2.%.s.s.L # # ; 6 6.Y.h.A.d.P 8 : r r 2 ",
"= 9 ^ w ( K.A.I o.Y.W.; ; 3 c.2.C.1.N.C.1.5.N.C.C.n.m.D.<.D.$.h.c.;._ 9 4 L  .@.S d Z _ x ( R r.Y G.E.a y j 0.s.m.D.3.3.4...Q J.U  .l # n H.A.j.A.L 4 q w - w ' ",
"+ = > r B T @.I...J.0 ; ; T U.&.1.V.N.^.1.5.D.1.F.m.4.A.=.>.>. .( ` 8 ^ = ` ( 6 0 = ^ e $ e 8 / 0 G.u.1 y G w.v.A.D.4.D.| U v.a...F.c.M T T U A.U 6 8 8 < ^ _ 9 ",
"- = + : w D ;.l.J.c 8 A ;.I h.F.1.1.1.1.D.C.{ D.A.A.>.=.N v v v n B + > O ] ` l 6 + r + . $ + : + B 9 , j r.l.H.T.=.D.&.I x.g.U m.m.U.T.L l b L @.;.C : 9 D 9 = ",
"t = + O ; 0 B ] w q R v.S.F.v *.D.&.C.m.m.D.&.*.A.=.v % @ % x ` l n # 7 3 ` V 5 3 # n > O > + + # w w a f f Y 7.P.T.P.I g.x.U *.Z.Z.A.A.c.b # 3 H.Q.G.= - 9 9 J ",
"- - = + O + > t = 9 R.X.M.Z.%.{ A.D.A.A.*.h.S.M v M l # @ O # n l v @ % % -.-.{ { N M % X # # # 3 3 : 8 d 8 3 n ( Y.! +.I...} F.B.Z.<.$.A.#.6 3 0 G._ : < < 9 w.",
": 4 : = O + + + w 8 W R.U S.S.*.N U.=.=.c.#.U b l x # O # % 3 v ,./.(.+XMXHXAXdX3XgXAXuX{.(.A.} 5 5 6 A D ; X @ 6 0 D J.+.U D.D.C.n.m.*.I =.H.c 4 q q 9 d d d Z ",
"0 4 ; = $ $ + O _ R P X.R.O.x.A.o.| A.c.:.L ; 4 + 6 0 ; # b Q.qX:XbX3X3XgXgXxX4X6X5XxXyXqXqX,X2XyX(.#.6 # X o @ # + K K R S.D.3.m.m.*.| | I.Y._ D q C Z C C Z C ",
"( n 7 > > > 4 q s.R.S c ..l.:.Y.S.I O.@.c w = + t > r K.(.|.yX,X3XnX5X5XcXxX4X5X7X7X4XgXqX*X2XxXgXSXHX|.>.o . @ + - i 1 w.I.2.3.4.=.{ | S.U.@.Y : q Y ~ S C 9 - ",
"G.;.^ B 7 4 D l.P W v.a.c ! K.T h.h.x 4 0 : e t + ' `.iXwX=X,X&X%XcX5X5XnXxXxX4X6X5XcXbX;XOX2XxXcXgXgXNXyX{.7.O = - - s H ..D.5.4.M o.F.h...A : C / Z q K _ ^ w ",
"..g.c.! c c ;.J.v.P W v.s.C Y H.W ..3 O w > 7 7 Q.9XwX=XyX&XXX3X1XfXzXnXbXCXnXZXzXcXZXkXeX:XsXbX5XcXxX2X,XyX8X`.1 2 2 - q L =.| N =.I.I...8 < f i./ y y D D q q ",
"d.a.X.X.+.l.+.W g.h.W P g.l.S S ;.c b 6 . 7 ` {.|.uX,X<X&X&X$X3XkXCXZXZXZXSXSXSXSXSXSXSXCXNXCXZXmXcX4X&X<X,XwX9X`.u.: B 0 :.x L >.I.H.A < d K / j i.i.a 1 q C Y ",
"a.a.s.s.l.l.l.+.W v.S.X.S ~ ~ 8 4 Y n 5 l V 0XiXyXyX&X$X,X2XsXlXCXZXZXZXSXSXSXSXSXSXSXSXSXSXSXSXZXZXxX&X<X,XwX|.8X'.K.0 ( 6 b ; ! ) ~ C d F K G e.r.K d c A ! :.",
"H Q z.z.l.r.l.v.I.A P v.l.C 8 : : + 6 -.-.iXBXOX;X%X%X&X,XlXAXAXSXSXSXZXZXZXZXZXSXSXSXSXSXSXSXSXZXSXZXgX,X<X}._.].wXuXQ.6 x + 8 q 9 9 d F H J E H d q P #.L L #.",
"a h J w.z.z.z.s.Q v.l.S ) ) 8 O + + 6 -.VXNX#XfX%X%X3XlXhXVXHXAXSXZXZXZXZXZXCXZXZXZXSXZXZXZXZXSXSXJXSXCXlX,XXX_.}.,XMXIXY.# 0 : - i f K K w.E S C P g.S.c.M M =.",
"h s s h J w.t.z.s.z.z.G.) 0 = 8 O + 6.GXrX@XcX6X1X3XCXSXNXVXAXHXCXvXfXfXfXvXvXvXbXZXZXbXfXfXbXSXSXSXSXJXJXNX,XXX2X$XCXyXiXK.: - 2 i / e._ H S S O.S.F.A.%.{ { =.",
"9.8.g u u s 9.t.z.E r.l.D D ^ = = ^ iXGXfX1X6X6XmXbXSXKXHXVXVXNXfX1X1X1XsXfXzXzXbXnXZXbXfX1XzXbXZXCXAXJXLXJXCXgX%XZXXX>XuX8X6.< ' k 1 d C C W h.M.m.%.| o.| I M ",
"8.8.j j j s s s J r.r.~ Y q 8 ^ w `.wXMXSX5X%X5XZXSXAXKXLXNX-X>XsX1X1X1XfXbXnXZXZXZXZXnXzXzXzXnXbXbXCXJXLXKXSXZXcX%X3X%X*XuX{._ w r q 0 L c.S.f.*.o.| f.U.c.L l ",
"p.p.e.9.j g g s h 9 ) ~ : 0 0 4 Q.9XuX,X3XcXnXZXSXAXHXKXBXhX>X%X:XfXbXCXCXZXSXZXSXZXnXnXnXnXcXcXcX1X>XhXKXLXLXJXZXzX1X%X;XwX|.`.6 6 l b  .>.h.$.| f.S.S.I.c.Y 4 ",
"e.e.t.t.t.y.J h F 1 9 q 0 n 3 ( ].=X=X$X>XzXbXSXLXLXKXBXMXlXgXxXCXZXCXCXCXCXbXkXfXzXbXZXZXSXZXnXcX4X:X-XUXGXPXLXJXSXzX%X$X,XyXuXT.m N N N  .=.$.A.S.S.g.l.;.Y 9 ",
"e.e.y.y.y.y.w.w.Z Z D D 0 4 6 ). X}.}.[.:XCXJXLXLXKXVXqX;XdXbXbXZXSXSXfX>X>X:XfXfXfXfXfXbXnXnXnXcXcXfX-XqXVXIXPXHXJXZX1X%X,XdXNX_.[ m N N  .P.I.x.x.g.X.~ / ^ k ",
"z.w.0.J J 0.w.r.r./ d c A l H.wX=X$X[.$XhXJXLXLXKXBXrXrXjXCXCXbXdXsXeXhXCXSXSXCXZXZXZXZXZXnXnXcXnXnXbXsXrXUXGXKXKXLXSXCXgX2X,X&XkX/.m z z b ;.H.Q Q E F h f k i ",
"q.q.q.q.q.w.~ ~ _ / C c b l ].MXdX,X,XdXBXKXLXHXtX+XOXyXAXCXhXtX*XtXAXSXCXlXbXCXkXbXZXZXZXZXbXzXnXbXZXAXNXhXVXVXPXPXKXCXlXgX3X&XgXOXz % 3 0 d K K F s y 1 y i i ",
"W Q Q X.s.q.~ ~ D / _ Y v } MXAXbXgXbXAXHXLXLXBXrXOX*XlXAXjX-X*XhXBXAXNX-XOX-XlXbXbXvXfXfXzXbXnXCXlXlXSXSXlXtXrXBXKXLXJXCXgX4X4X3XNX=.3 : k i k u u u u u u u i ",
"O.O...W W Q ~ ) _ D q c I (.jX,X3X3XCXJXHXLXLXNXdXdXbXZXCXhXUXVXLXjX*X-XNXAXCXCXSXZXCXvXfXbXZXJXJXNXtXdXbXbXdX-XrXVXPXPXJXvX3X3XbXJX).q , 2 1 i i p p j 8.j j p ",
"m.*.%.$.o.....! 0 0 0 c c ).}.$X>X:XAXLXKXKXHX;X%XdXbXgX;X-XVXPXrXhXNXAXAXsXeXpX@X:XfXbXCXvXvXkXLXBX-X>XgXZXbX-XhXVXHXLXJXCX3X3X6X,X=Xc - 2 i k 8.p p p p p j j ",
"V.3.3.1.1.1.&.$.:.D ^ C R '.'.'.].[.HXHXKXKX|.*X-XNXAX;X*XlXCXFXpXNXAXCXNXCXCXCXbXbXvXvXbXCXCXCXJXNXNXOX:XLXNXlXNXNXJXLXSXCXfX%X6X4X2XS.; < i i u j j j 9.e.e.t.",
"!.3.3.3.1.1.2.&. .n ( Y J. X'.'.].*XKXKXGXuX]._.tXAXAXtXyXNXCXkXNXAXAXNXkXkXbXbXbXvXkXkXlXbXCXCXCXCXAXrXeXAXAXAXVXpXNXSXSXZXbX1X5X5X4X/.6 8 k k j y.t.t.t.K f a ",
"3.3.C.C.C.C.C.4.M x c C Q. X'.'.}.yXKXLXHXwX}.[.NXJXNXhXNXAXNXvXCXAXCXkXsXfXkXvXvXvXvXvXkXbXbXNXlXCXAXAXhXpXHXKXhX@X:XCXSXSXZXcX5X5XcX_.l 4 r k d Z d 9 C R s.v.",
"<.<.<.<.<.<.&.| M 6 0 0 ].=X X=X=XBXHXLXAXrXyXyXAXJXkXjXAXNXkXDXkXkXkXsXpXfXvXvXvXvXvXbXbXbXlXlXlXCXhXSXhX+XHXHXrX+X-XCXSXZXZXnX5X4XcXtXl ; = : ~ c.S.S.I.x.o.o.",
"Z.F.F.F.F.A.h.#.( x n b uXjXyXMXyXLXSXJXNX*XyXjXSXJXhXlXAXjXCXDXpXpXsXkXkXkXvXbXbXbXbXbXbXbXbXbXCXCX-XCXNX+XAXHXhX-XpXSXSXCXbXbXxX4XbXBXv # + = A X.d.O.%.4.m.C.",
"M.M.A.x.A.m.=. .x 3 5 v yX<X$X$XdXSXSXJXCX;XyXjXSXSXpXCXNXdXSXCXkXkXkXbXbXbXbXnXnXbXnXbXbXbXbXCXCXCX+XlXAXrXNXJXAXkXCXJXSXvXvXzX3X3XgXAX( # # ; P g.S.S.S.D.C.N.",
"d.a.a.g.j.x.g.:.( ` ( :.SXxX4X3XgXCXDXSXSXhXjXCXSXCXpXSXNXtXSXpXCXkXkXCXZXbXbXnXnXnXnXbXbXbXbXCXlXAX-XhXJXeXeXJXJXCXCXSXSXSXZXbX3X2XgXBX:.; : = A g.S.M.S.S.A.m.",
"X.X.Q W Q Q P b 4 3 5 N gX4X5X4XnXZXDXDXSXlXdXCXSXkXpXJXlXtXSX@XCXkXkXCXZXbXbXZXZXnXbXbXvXvXbXCXkXSXeXhXJX-X+XSXSXNXkXCXCXJXJXZXxXxXgXBX7.3 : = A g.v.d.g.g.%.d.",
"R S S S S S A 0 0 7 5 N CXcX5X4XxXSXDXDXCX1XlXCXSXaXkXJXdXtXSXaXkXpXCXZXbXvXvXZXnXnXnXnXbXbXCXCX:XSX:XhXCX:XlXAXSXpXeXNXSXJXSXCXxXgXdXBXK.4 : 8 S Q q.q.q.~ Q Q ",
"X.Q X.s.Q R A 4 + # # m CXcX5XcXbXJXDXJXSXfXlXCXSXaXpXCXNXdXSXaXSXpXkXbXbXZXbXZXZXZXnXbXbXbXbXbXeXSX:XkXSXsXCXSXSXlXNXJXJXSXAXCX&XoX<X=X6.= 2 2 Z 0.q.0.w.w.0.w.",
"W P A S S R W A n B n M AXxX4XcXbXSXDXSXSXkXlXCXSXvXkXkXAX:XCXvXSXsXkXkXkXCXbXZXZXZXbXCXbXCXCXCXsXCX:XkXSXsXCXSXSXpXeXCXJXJXDX:XXX_.$X|.) : r < 9 Z F h F G G J ",
"f.f.S.R.I.S.g.P ; ; 3 l yXgX3XxXbXSXDXDXCXhXdXNXSXDXCXsXAX*XkXSXNXhXAXCXsXfXkXZXCXCXCXCXCXlXlXlXNXCXpXlXCXsXlXAXCX:X@XaXAXLXAXeX$XoX<X|.c = = = 9 Z H F F h h h ",
"F.m.A.c.d.h.v.l.( B x l *XdX:X1XNXSXSXSXSXjX;XsXSXSXCX:XSX>XvXSXhXtXAXAXkXkXsXkXbXCXCXlXlXsXtXrXCXAXCXCXCXkXCXSXsXpXkXSXAXJXLXAXCXCXjXwX4 ; = w ! s.k.s.s.q.E Q ",
"<.<.A.U.S.S.v.+.: + O % (.NXlXNXhXNXJXJXJXNX*X*XSXDXpX:XSXlXZXvXNXtXMXBXNXAXhXeXsXsXsXsXhXsXsXtXkXCXCXCXlXlXCXSX:X:XCXJXJXJXHXhXyXBXjX|.0 w ; B @.x.S.S.S.S.v.S.",
"C.3.4.=.$.%.d...D 8 4 6 I.jXMXMXtXhXJXJXKXNX*X;XCXSXkXsXCXCXZXfXAXhXMXNXNXJXNXsXsXsXsXsXhXlXNXAXhXNXCXkXpXCXCXlX:X:XhXSXJXJXVX+X[.=X=X(.4 3 # x  .*.n.n.A.A.m.Z.",
"<.&.&.*.*.*.%.W 0 : ; ; } qXyXrXyXVXKXJXJXAXtXlXkXJXSXCXdXhXCXaXAXVXAXMXhXAXCXCXCXCXlXsXhXlXNXAXlXCXAXsXeXCXCXsXpXkXSXJXJXAXNXtXyXyX=XH.# O 3 V =.2.1.2.<.<.&.<.",
"=.%.f.m.f.*.%...c 4 4 + 6 8XwX;X*XMXHXJXSXSXCXbXfXfXSXbXsX*XNXJXBXNXNXNXAXAXlXsX:XsXbXZXCXfXpXfXJXlX>X:XCXJXNX-XrXaXDXJXJXAXhXtXMXuXuXb 6 n 5 m 4.1.1.1.1.1.n.n.",
"c.g.%.$.$.$.%.@.! : = + 4 Q.uXyXyXyXhXNXSXJXZXkX1X:XbXCXCX:XNXCXAXNXhXpXkXCXJXJXSXCXbXfX1X:XpXbXfX:X>XdXCXCXNXpXVXHXLXJXCX:X%X$X*XuX{.b # 3 5  .4.N.V.~.V.B.B.m.",
"o.$.*.<.n.B.F.S.:.8 = = : Y uXuX;X>X;XlXJXJXSXCXeX@XhXCXSXbXCXlXCXAXNXkXeX:X:XeXCXCXCXbXkXfXbXZXpXsXlXSXZXlXsXNXAXKXLXLXAXlX2X,X=XwX;.6 0 c x >.U.C.V.V.V.B.C.F.",
"=.A.D.B.B.B.m.h.:.D < - - < `.wX$XOX,XbXSXJXHXKXVXrXpXCXZXZXnXxXpXkXAXSXCXlXlXlXNXCXSXJXJXSXZXAXkXkXCXZXgX%X#XpXLXLXKXHXAXlX2X,XuX].c 6 4 0 A P.S.C.V.V.V.V.C.D.",
"$.D.D.1.N.N.n.m.l.~ 9 < , - L.8X&X&X3XbXAXHXKXPXKXVXFXNXfXxXnXcX1XsXkXlXNXCXSXSXAXCXCXCXCXCXCXCXJXSXSXZXfX>X1XkXJXLXKXNXtX,X2XgXBXR.6 : : q P @.$.<.N.V.^.C.D.D.",
"m =.C.1.N.B.n.m.c.Y < 2 < = 9 `.NX4X2XdXlXAXLXKXLXHXVXkX>X3XcXnXZXCXlXsXeX:X-X-XtX:XeXhXNXCXAXSXJXSXDXZXZXnXZXSXCXJXSXeXOX$X,XlX*XM 3 + q ) ;...o.$.&.<.1.N.D.^.",
"5 >.F.n.N.1.$.o.g.;.C < - - - K.yX2XgX:X;XhXHXHXKXJXNXCX>X3XzXnXZXZXZXZXCXlXtX;X;X;XtXNXJXJXHXAXvXFXaXaXkXSXSXZXZXZXbX%X_._._._.I.m M c 0 S l.J.g.%.$.| | &.<.m.",
"# #.A.$.*.*.%.f.X.J.r.8 = 8 w 4 _.;XjX;XOX-XNXSXCXSXCXSX1XvXvXZXbXbXZXSXSXSXSXAXLXHXAXHXJXAXNXkXDXDXDXFXAXLXJXCXnXnX4X3X,X,X}.).,.m v b A R ~ l.v.k.M.m.*.$.| { ",
"8 0 #.A.*.%.f.f.x.+.S q 8 0 c b #.[.qX;X;XOXgX3XzXzXbXZXZXSXDXDXfXzXbXCXCXCXCXAXMXHXBXhXhXrXOX@X#XZXJXAXKXKXHXSXcX5X6X4XdXMX9X:.[ [  .-.:.l.q.R W a.k.k.f.f.f.f.",
"< 8 ~ J.x.d.j.d.X.+.+.! Y b x x x ! uXwX[.lXOX4X6XcXnXZXZXSXSXSXbXzXzXgXkX:X+XOXyXBXtX*X*X+XOX+X1XmXSXLXPXIXAXZX1X5X5X&XSXuXK.c N [ -. .#.l.v.v.a.Q W X.j.S.k.a.",
"f < d l.v.g.d.a.W X.l.l.! b v x 3 _ G.8XGX*X2X4X6X5XnXnXZXSXJXSXZXbXbXCXCXsX*XOX*XrXrX*XrXMXMXCXnXnXSXLXKXPXHXsXzX%X%XZXyXQ.^ O z m [ >.c.l.s.g.v.a.X.Q X.a.b.v.",
"u.9 < R l.l.X.X.s.s.Q W P A b b ^ ^ : K.uXBX2X%X6X6X5XcXnXZXSXSXZXnXZXSXJXAXMXMXMXGXBXMXBXJXKXAXZXSXJXAXMXHXJXsX1XgX>XeX(.5 = 7 % z M :.c.c.s.Q s.j.v.k.Q R q.b.",
"L.K < q ~ l.+.X.z.s.R H R R P A w + 8 4 H.uXjX%XnX3X6X5XnXcXcXZXZXZXZXSXJXJXHXHXHXLXLXHXAXJXJXCXSXNXAXNX:XdXCXCXlX-XHX(.o O 7 ; 3 b L c S v.J.g.O.@.g.x.v.g.s.W ",
"G.) q 8 P l.l.l.E H H E w.r.R C = w + + c H.*XAXZX3X1X5XcX5X5XcXnXZXZXSXSXJXKXLXLXHXHXHXAXJXJXAXGXrX;XgX2X&X3XSXAXVXW.. o % O 8 D Z H S Z S s.v.x.g.@.@.x.v.j.a.",
"S l.~ 0 c ! ;.s.Z H 0.w.w.E H Z 9 k - : c x c.qX;XsXxXcX5X5X5X5XmXvXDXSXJXKXKXLXPXHXHXKXNXkXhXrXuXqX[.&X6X&XoX2XqXW.    @ . 7 w u.J J w.0.C C W x.A.c.#.} g.x.v.",
": l.l.c 0 P W R H w.z.r.E H H _ D < 8 q q c x v ).rXSXnX5X5X5X5X1XpXfXCXZXCXjXuXyX*XyXBXNXsX1X>XqXqX[.[.,X2X%X[.-.. . @ X O ; _ r.z.w.F J s.E 8 L @.c.#.#.c.g.O.",
"5 x :.:.c 0 R Q q.z.E E z.9 ) ) :.6 ( ^ : ^ w ; 3 T.+XAXSX1XZXxX>X:X1XzXxX2X<X X.X.X XyXNXsX>X2X*X*X[.|.wXiXY.( l % @ . 4 8 / L.:.>.X.E 0.0.0.E S c M :.:.I ..S.",
"5 5 T :.P A Q q.z.H s.Z q l.! :.5 7.M 0 ^ w : : ; l  .(.*XNXJX;X,XyXgXcXxX2X<X X.X.X XwXjXsX1XgX$XuXGX{.K.0 # l V V % ; : Z K G.c.=.g.s.q.J J w.S q 3 l T #.O...",
"I v T :.) ~ ~ S ~ H ~ d l.R l.c #. .b _ _ 0 0 4 6 v l l 5 #.).wX|.=XdXbXbX2X=X=X X X].=XMXNXdXdXyX(.:.+ O O ; 3 V ( b c 8 F K z.x.f.j.k.s.w.K K 9 w 4 3 x T ....",
"c...U ;.) ) K 8 9 Z ~ l.W @.6 @.A.l #.H.T T A c b b 6 v 3 x 0 8 J.Q.[.MXHXBXwX9X X'.{.wXiX|./.I.A # 4 : = + = ; 0 Y l.~ E a J w.a.h.h.a.z.J.r.q - : w q 0 6 b ..",
"@.X.P A D u./ 9 - < G.) +.x O.x.5 | A.#.@.>.b #.#.T c c + : = < , - ; 5 m V 6.7.7.7.` ` 5 6 3 c A + + = + : - 8 c S l.l.z.f h J s.j.v.c.G.G.^ = w < : 8 8 0 0 c ",
"X.+.R q d / / ^ < q + G.c U I.l v U.o.I A.| } A.c.T C q < k 2 , i , : 3 % @ o X . $ $ e # 3 + 0 D 4 : 8 = 9 8 D ! ! P s.s.w.h F E s.J.Y.6.x ; 3 Y Y d < < q n 4 ",
"l.l.) Z 9 9 f / ' : 8 4 b H.U 3 I.g.I %.$.{ m.S.S.W ~ d 1 2 2 2 i , - + + O $ t e e O e # B ; 0 ( c 4 8 D ) ) G.+.g.W a.s.z.J h F J l.6.n @ % L ;.l.q.Z 9 8 r r ",
"r.r.) D 9 = 8 _ _ G.; # b T 6 H.H.M c.A.{ &.m.A.g.S r.f k i i k 9 9 9 8 : + + = O t + B 3 n 5 M :.:.H.L ;.! l.I.P a.j.W s.s.w.F h K D 0 @ % N >.x.a.q.q.S : = e ",
"u.u.d - - : 8 ) G.Y c c 0 4 ( W.;.#.A.{ { F.F.f.W R r.s K k k / ! >.#.R : < - < - C c x I >.,.,.A.=.I...@.@.s.g.x...h...S I.R r.s f 1 O @ -.K.>.g.k.v.q.Z ) w + ",
"' 1 < 9 : 0 ! ;.b ! :._ 0 4 w ( Y Y.>.{ m.D.f.h.P q.9.g j u e.~ h.A.g.Q a y 1 y a K R P $.4.3.3.C.n.D.$.O.O.X.O.S.} %.x.A +.l.~ s - + + V 7.-.5 U a.a.v.v.c ) c ",
"9 , , < 8 ) c.P L c.H.D : : < : 0 H.I | U.D.f.d.S w.h h g 1 z.W D.D.h.q.s u u u s w.w.Q %.n.3.!.3.V.B.n.%.d.O.O.h.j.I @.H.! G.~ K 1 , ^ ` B 3 X O l.+.s.v.x.x @.",
"- 9 < 8 ) l.P b H.c.Y : = < 2 - 0 b } A.F.A.A.P J w.g g s d v.U C.C.h.E u p p p u 9.b.Q o.<.3.!.3.V.1.n.$.%...@.@.I.#.} Y.c Y D Z 1 9 ^ : O O : + . G.+.@.g.h.I ",
"< : 8 ) H.A x :.H.Y 4 : < < , - P l A./.A.A.g.c r.9.j g a E s.} C.D.x.J p p p p u e.z.s.X.*.D.~.~.~.1.B.$.O.....c.H.P.L 6 X Y q L.D < , - = = = = O . K.#.g.S.O.",
"8 : ! H.Y c :.K.( 4 = 8 9 , , d W } F.U.F.m.L H t.j 8.g a s...$.C.D.v.h p p p i u e.z.b.Q d.D.C.~.~.N.Z.A.g.l.;.;.T L O ; 3 _ A W._ 9 , 1 f k 2 + > . . K.:...x.",
"q R l.! x :.K._ 0 ; = < < , y K P m.F.M.F.o.A r.e.j j g d s.{ 1.C.C.k.g p p p i a J z.s.Q d.F.N.V.V.N.S.I.+.;.Y 8 0 # O Y Y 6.D n w 9 1 y h / / > O $ . . 7.:.l.",
"W v...0 ! K.6.x # ; 8 < < 1 f F X.U.F.F.m.I P r.j j p j Z +.{ C.C.B.k.g p p j y a H b.b.Q d.Z.N.~.~.C.m.c.q q = = = A G.:.A G.: w ^ / K u y h ^ r e X o . @ :.G."
};