/* XPM */
static char *_bd9ee9078574c45ba94431cb0e28640WGwL2zgZWJgRo4AP[] = {
/* columns rows colors chars-per-pixel */
"32 32 211 2 ",
"   c #590400",
".  c #79170A",
"X  c #7C2808",
"o  c #753309",
"O  c #7B320C",
"+  c #6C2818",
"@  c #762013",
"#  c #732C17",
"$  c #7D2419",
"%  c #752E1C",
"&  c #7D3812",
"*  c #6C2D22",
"=  c #642E22",
"-  c #752D25",
";  c #663123",
":  c #6D3226",
">  c #6B3529",
",  c #6E3929",
"<  c #723020",
"1  c #73352B",
"2  c #7A362B",
"3  c #7D3A2E",
"4  c #723D2D",
"5  c #773831",
"6  c #7C3A35",
"7  c #811C12",
"8  c #892E0F",
"9  c #822D0E",
"0  c #933007",
"q  c #973F0D",
"w  c #9A340C",
"e  c #882717",
"r  c #86261A",
"t  c #833717",
"y  c #8F3312",
"u  c #823911",
"i  c #803518",
"p  c #8F3C14",
"a  c #943413",
"s  c #963816",
"d  c #973518",
"f  c #93391A",
"g  c #9C3B1C",
"h  c #A13E1F",
"j  c #952F2A",
"k  c #9D3721",
"l  c #97372B",
"z  c #9D431A",
"x  c #9F4221",
"c  c #99422F",
"v  c #A34423",
"b  c #AE4427",
"n  c #A44B24",
"m  c #AA4C2C",
"M  c #A84A28",
"N  c #B1472C",
"B  c #B14D2C",
"V  c #BA4C2D",
"C  c #B24526",
"Z  c #AB522C",
"A  c #AA562A",
"S  c #B5532C",
"D  c #BA532E",
"F  c #B15A2F",
"G  c #A74135",
"H  c #AA4C32",
"J  c #B34E31",
"K  c #BC4E33",
"L  c #B74B37",
"P  c #AB5B32",
"I  c #AD5233",
"U  c #B55435",
"Y  c #BB5434",
"T  c #B55A35",
"R  c #BA5933",
"E  c #B35439",
"W  c #BB553C",
"Q  c #B75F3B",
"!  c #BC5B3B",
"~  c #B36034",
"^  c #B06138",
"/  c #BA603B",
"(  c #C14F35",
")  c #C15436",
"_  c #C3553B",
"`  c #C25B3B",
"'  c #C95C3E",
"]  c #C05D36",
"[  c #C5613D",
"{  c #CB643E",
"}  c #D0623F",
"|  c #AA534A",
" . c #BF5B41",
".. c #BC6A44",
"X. c #C55C42",
"o. c #CC5E42",
"O. c #CC5F48",
"+. c #C65543",
"@. c #D05E44",
"#. c #C56442",
"$. c #CB6544",
"%. c #C76F47",
"&. c #CC6B44",
"*. c #CE654A",
"=. c #C76E4A",
"-. c #CD6A4B",
";. c #D26546",
":. c #D16B45",
">. c #D3654B",
",. c #D36C4C",
"<. c #DA6B4D",
"1. c #CD7047",
"2. c #C77249",
"3. c #CE734B",
"4. c #D37047",
"5. c #D47847",
"6. c #D4734E",
"7. c #DA734C",
"8. c #D57B4F",
"9. c #DC7B4E",
"0. c #CD6B50",
"q. c #D46C51",
"w. c #DB6D52",
"e. c #DC6F58",
"r. c #D96551",
"t. c #CE7351",
"y. c #D57452",
"u. c #DA7453",
"i. c #D57953",
"p. c #DA7B55",
"a. c #D57658",
"s. c #DD7659",
"d. c #D57C5A",
"f. c #DC7B5A",
"g. c #E17B4B",
"h. c #E17554",
"j. c #E37A57",
"k. c #E1765C",
"l. c #E27D5C",
"z. c #E97755",
"x. c #E47D61",
"c. c #DB814F",
"v. c #D58253",
"b. c #DC8254",
"n. c #DC8854",
"m. c #DB845C",
"M. c #D6815C",
"N. c #D69158",
"B. c #DF925A",
"V. c #E1845D",
"C. c #E3895B",
"Z. c #E38957",
"A. c #E5995D",
"S. c #E6945D",
"D. c #CF8562",
"F. c #DD8562",
"G. c #DC8963",
"H. c #DE9768",
"J. c #D79072",
"K. c #DC997E",
"L. c #E48463",
"P. c #E98666",
"I. c #E38A63",
"U. c #E48768",
"Y. c #E78A68",
"T. c #EA8D6C",
"R. c #ED8D67",
"E. c #E49563",
"W. c #EA9464",
"Q. c #E49B63",
"!. c #EA9B64",
"~. c #E5946B",
"^. c #EA946D",
"/. c #E79C6C",
"(. c #EC9F6B",
"). c #EB9D6B",
"_. c #F19F6F",
"`. c #E69776",
"'. c #E69872",
"]. c #EE9F74",
"[. c #EC9D73",
"{. c #EA9B7B",
"}. c #ED9370",
"|. c #F29E75",
" X c #F39675",
".X c #EDA26D",
"XX c #EAA16A",
"oX c #F3A16E",
"OX c #EBA478",
"+X c #F1A373",
"@X c #F9A476",
"#X c #FCA27B",
"$X c #FCAC7E",
"%X c #F5A778",
"&X c #FBB17B",
"*X c #F6B87F",
"=X c #F3B27A",
"-X c #F59E80",
";X c #EFA88C",
":X c #EAA382",
">X c #F6A780",
",X c #FFA786",
"<X c #F4A886",
"1X c #FFAE82",
"2X c #FDAB83",
"3X c #FFAB8B",
"4X c #FFB684",
"5X c #FEB185",
"6X c #FFBD85",
"7X c #FFB58D",
"8X c #FDB99A",
/* pixels */
"M.d.m.m.V.p.I.I.b.n.$X5Xv.p.p.p.p.9.b.8.p.b.b.p.8.8.4X&Xb.C.v.v.",
"p.p.y.<.u.h.y.j.k.L.E 0.*.k.e.s.y.x.s.f.f.a.y.a.f.L.P 2X$.y.a.s.",
"y.y.p.u.p.f.6.6.j.#.Z T #.u.l.u.u.u.y.y.u.u.u.u.6.&.P OX&.p.y.j.",
"f.y.f.y.y.6.l.u.,.&.Z Z ! :.{ 4.p.&.p.6.6.i.p.8.:.:.A +XD :.:.<.",
";.<.;.<.<.;.<.;.+.X.k k L _ >.<.q.q.u.e.w.>.>.>.>.K M -X_ _ *.r.",
"Y [ S R ] R M B J v 8 X ! ! Y Y V ' C K ) V V V M m u OXU Z Q R ",
"+X~.]./.[.[.~.].+X/.4X4XE.@XW.oX.X/..X).+X(.(.).+X!.=X*XoX).XX.X",
"v.~ 1X+X+X~.|.~.Y.~.~.~.~.T.i.p.d.T 2XY.p.6.p.i.6.u.p.1.h.h.i.y.",
"k.m 2Xd.a.s.p.i.i.6.p.6.i.p.i.i.s.Z 1X3.u.w.s.y.p.u.u.j.6.p.6.u.",
">.M 7XZ :.} 7.9.s.k.u.x.y.s.s.u.-.M $X~ #.u.u.i.p.u.y.u.f.y.p.6.",
"R z 5X%.W q.>.q.&.,.:.{ 7.$.{ 4._ v 5XS ` o.$.:.,.,.$.,.-.,.,.-.",
"Y a 2Xi.U D ] D X.-.*.-.,.$.b ` W a #XT ` J X.! K o.>.u.o.o.) ) ",
"i J.8X# 3 6 5 5 2 2 2 2 - - 3 + O D.7Xo O & t O u o & o o O u O ",
"l.L.l.p.^.~.I._.|.~.F #Xm.M.W.@X{.`.'.H.<X:X{.{.}.].5X7Xm.d.d.F.",
"7.9.g.9.6.p.V.6.y.P.B ,.q.u.s.q.q.l.p.p.a.a.u.u.f.t.^ |.#.l.y.6.",
"d.a.y.f.a.a.p.p.a.=.M R #.u.u.f.f.u.7.7.f.y.p.u.u.4.A #X[ <.u.p.",
"e.u.u.u.u.f.y.<.<.! H H Y <.<.&.u.u.j.7.u.u.u.;.<.! Z |.R o.,.-.",
",.-.1.,.y.=.=.:.Y ! 9 f ` D R #.,.y.-.y.,.$.q.$.Y R p #X! Y Y $.",
"j l c e r @ $ 7 . $   | l G l j s s v v s g d g g y G.2Xg h a g ",
"V.n.&Xn.9.8.n.c.Z.v.n.v.Z.5.b.p.m.2X2XM.d.U.T.T.T.~.G.d.F.P. XF.",
"u.P 1XV.f.i.i.p.1.i.d.t.p.p.:.l.p.A 5X^.d.L.L.F.L.m.I.G.F.Y.m.t.",
"x.Z 7Xy.y.f.a.u.l.y.s.f.y.u.f.u.p.T $X2.6.u.p.i.f.L.d.f.y.y.p.l.",
">.n 5XR ' q.y.y.p.u.w.s.u.6.u.,.$.z 2X/ $.<.;.a.y.l.u.,.f.6.u.$.",
") n 1XS ` ` #.7.&.:.,.:.&.4.,.*._ v ,XU Y _ >.,.,.$.<.<.$.,.:.{ ",
"m y 3XU ` K ) _ ! W W Y ) D N L m s ,XU ` W Y ` W W W ! Y N J H ",
"H.Q.%XXXQ.E.!.S.A.E.).XXA.A.B.(.Q.N.6XQ.!.Q.!.E.S.E.Q.Q.(.!.!.!.",
"s.l.q.u.y.u.u.s.V.L.I y.y.3.R.L.P.f.y.y.y.w.j.s.V.d...>XG.L.V.y.",
"6.6.l.y.f.p.6.p.u.a.E t.=.i.6.7.f.y.u.u.f.y.y.p.u.p.Z #X=.u.,.j.",
"p.p.6.7.u.6.p.6.>.<.b N $.,.w.z.6.6.p.6.p.y.6.p.u.&.F |.! y.y.7.",
",.,.,.,.,.-.u.*.q.! m g E W q.*.:.u.,.y.,.q.y.-.O.` n #XW W *.:.",
") ) w.>.w.*.X._ E ! 0 w ` Y  .! _ ;.;.w.<.;.@.( W ! q W.! W U ! ",
"4 , ; ; > > = > 1 + K.;X# 2 1 1 1 1 1 * * : : * - % :X8X+ - 3 < "
};
