/* XPM */
static char *f94ceb4450414ab8c26a38c45b3349e74rKCv8oNenIbiZa2[] = {
/* columns rows colors chars-per-pixel */
"27 32 125 2 ",
"   c #010101",
".  c #000A04",
"X  c #060108",
"o  c #090409",
"O  c #0D0D0D",
"+  c #0C0C04",
"@  c #021402",
"#  c #021A02",
"$  c #040410",
"%  c #1B1B1B",
"&  c #092107",
"*  c #082B0A",
"=  c #102A0F",
"-  c #063104",
";  c #023902",
":  c #053609",
">  c #1F211E",
",  c #232222",
"<  c #333333",
"1  c #3B3C3C",
"2  c #014A01",
"3  c #0E4D02",
"4  c #0A4809",
"5  c #104E03",
"6  c #17470D",
"7  c #0F5B00",
"8  c #07590F",
"9  c #125C02",
"0  c #1D4314",
"q  c #164E11",
"w  c #0B5D1B",
"e  c #1D571C",
"r  c #2A5A1C",
"t  c #046108",
"y  c #156C01",
"u  c #147501",
"i  c #147C02",
"p  c #1D7C06",
"a  c #187115",
"s  c #1D7020",
"d  c #444344",
"f  c #4A4A4A",
"g  c #535252",
"h  c gray36",
"j  c gray40",
"k  c #0F8C02",
"l  c #148300",
"z  c #128C03",
"x  c #188F01",
"c  c #0D9300",
"v  c #0E9B02",
"b  c #139706",
"n  c #109B01",
"m  c #268D1A",
"M  c #0CA302",
"N  c #06AE03",
"B  c #0CAA01",
"V  c #0DA90A",
"C  c #14A105",
"Z  c #12A10B",
"A  c #11A909",
"S  c #07B103",
"D  c #0AB402",
"F  c #04BD01",
"G  c #0ABA02",
"H  c #27AA28",
"J  c #29B723",
"K  c #07C501",
"L  c #08C001",
"P  c #05CE01",
"I  c #08C803",
"U  c #09CB08",
"Y  c #04D700",
"T  c #04DB01",
"R  c #01E601",
"E  c #03EE01",
"W  c #06EF08",
"Q  c #01F207",
"!  c #01F209",
"~  c #0AF00A",
"^  c #07EB18",
"/  c #03F412",
"(  c #01F61B",
")  c #00F723",
"_  c #0EF229",
"`  c #01FB2D",
"'  c #13E836",
"]  c #02FD34",
"[  c #02FE3D",
"{  c #22E131",
"}  c #2BEA38",
"|  c #5AAB73",
" . c #14EE40",
".. c #18EC4A",
"X. c #07F641",
"o. c #05FB42",
"O. c #0DFB45",
"+. c #22EC48",
"@. c #3BE046",
"#. c #37E649",
"$. c #32E65F",
"%. c #3BFD5E",
"&. c #34F866",
"*. c #38F670",
"=. c #40DA48",
"-. c #4AE762",
";. c #50EF79",
":. c #56F171",
">. c #5EF486",
",. c #6BF88F",
"<. c gray60",
"1. c #81FF9E",
"2. c #82FAA1",
"3. c #83FEA3",
"4. c #88FFA5",
"5. c #81FAAA",
"6. c #85FAA9",
"7. c #84FBA9",
"8. c #85FCAA",
"9. c #90F1A4",
"0. c #95F1BE",
"q. c #C8C8CA",
"w. c #F6F6F6",
"e. c white",
"r. c #F9F9F9",
/* pixels */
"w.                                                    ",
",                   6.8.3.4.                          ",
"            o     0. .[ [ [ &.1.w X                   ",
"                      X.[ [ [ [ ..6.+                 ",
"      1 h     2.[ [     [ [ .                         ",
"            5.[ ] $.# ] o.8 ] [ [ [ O.9.      O       ",
"        d # ] ]   o   X ] ] ] ] ] ] +.@ *.,.  % o     ",
"          >.`     e.    ` ` ` ` ` o       %.| f       ",
"        ;.) '     q.    ) ) ) )     r.    o :.        ",
"    o : _ ( }           ( ( ( ( t         X ( -.      ",
"      #.! / / 2       / ! / ! ! / ;       ~ / ^       ",
"  g =.W ! ! ! ! ! ! Q ! Q ! ! ! ! ! ! ! ! Q Q ! @.f   ",
"    { E E E Q Q E E Q Q E E E E E E E E E E E E E     ",
"    R R R R R R R R R R R R R R R R R R R R R R R     ",
"    T T T T T T T T T R T T T T T T T T T T T T T J   ",
"  H Y Y Y Y Y Y Y Y Y Y Y Y Y Y Y Y Y Y Y Y Y Y Y T > ",
"g U P P P P P P P P P P P P P P P P P P P P P P P P   ",
"1 I I I I I I I I I I I I I I I I I I I I I I I I I   ",
"O L L G K L L L L L L L L G L L F L L L L L L G L L   ",
", D G G   G G G G G G G G G G G G G G G G G @ F G D   ",
"d A D D D o D D D S D D S D D D D D D D D . S D D V < ",
"  s B B B B   . V M B B B B B B B N B @   B B B B M <.",
"    M M M M M n a   X . * e -       4 Z M M M M M C j ",
"    v n n n v n n n v v n v v v b n n n n n n n n m   ",
"  h q c c c c c c c c c c c c c c c c c c c c c c     ",
"      z z z z k z z k k z z k k z z k z z z k z x     ",
"        p i l l l l l l l l l l l l l l l l l i # <   ",
"          0 i u i i i i i i i i i i i i i i u r o     ",
"          d   y y u u u u u u u u u u u y y $ o       ",
"                  9 9 7 y y y y y y y 9 9             ",
"                      3 3 3 3 3 3 3 5                 ",
"                      <     = 6 &                     "
};
